<svg xmlns="http://www.w3.org/2000/svg" width="60" height="61" viewBox="0 0 60 61"><g><g><path fill="#fafafa" d="M54.596 30.244c0-4.365.361-13.737-1.205-17.686-1.058-2.638-3.079-4.66-5.702-5.704C43.753 5.301 34.37 5.65 30.007 5.65c-4.364 0-13.734-.361-17.682 1.205-2.637 1.058-4.659 3.08-5.703 5.704-1.552 3.936-1.204 13.321-1.204 17.686S5.056 43.98 6.622 47.93c1.058 2.638 3.079 4.66 5.703 5.703 3.935 1.554 13.318 1.205 17.682 1.205 4.363 0 13.733.362 17.682-1.205 2.637-1.057 4.658-3.079 5.702-5.703 1.566-3.936 1.205-13.321 1.205-17.686zm5.193 12.37c-.24 4.807-1.338 9.065-4.845 12.572-3.507 3.522-7.764 4.62-12.57 4.847-4.952.281-19.796.281-24.749 0-4.805-.24-9.048-1.339-12.569-4.847C1.536 51.68.438 47.421.211 42.615-.07 37.66-.07 22.813.21 17.86c.24-4.807 1.325-9.064 4.845-12.572C8.576 1.78 12.833.682 17.626.455c4.952-.281 19.796-.281 24.749 0 4.805.24 9.062 1.339 12.569 4.846 3.52 3.508 4.618 7.766 4.845 12.572.281 4.954.281 19.788 0 24.742zM49.603 14.232a3.58 3.58 0 0 1-3.587 3.589 3.58 3.58 0 0 1-3.588-3.589 3.588 3.588 0 1 1 7.175 0zm-9.597 16.013c0-5.516-4.485-10.001-10-10.001-5.514 0-9.998 4.485-9.998 10.001 0 5.516 4.497 10.001 9.999 10.001 5.501 0 9.999-4.485 9.999-10.001zm5.38 0a15.357 15.357 0 0 1-15.38 15.383 15.357 15.357 0 0 1-15.38-15.383 15.357 15.357 0 0 1 15.38-15.383c8.514 0 15.38 6.868 15.38 15.383z"/></g></g></svg>