<svg xmlns="http://www.w3.org/2000/svg" width="38" height="60" viewBox="0 0 38 60"><g><g clip-path="url(#clip-71087b64-5136-48e6-be0b-eba9c2b7bd73)"><path fill="#fff" d="M11.532 15.194c0 4.112 3.35 7.463 7.463 7.463 4.112 0 7.462-3.35 7.462-7.463 0-4.147-3.35-7.497-7.462-7.497s-7.463 3.35-7.463 7.497zm-7.732 0C3.8 6.794 10.63 0 18.995 0c8.364 0 15.194 6.795 15.194 15.194 0 8.365-6.83 15.16-15.194 15.16-8.365 0-15.195-6.795-15.195-15.16zM32.48 39.128c-3.21 2.039-7.627 2.847-10.544 3.152l2.449 2.413 8.938 8.939c3.269 3.35-2.05 8.587-5.353 5.354a1886.1 1886.1 0 0 0-8.939-8.974l-8.939 8.962c-3.303 3.221-8.622-2.062-5.318-5.354 2.272-2.273 5.518-5.553 8.938-8.939l2.414-2.413c-2.882-.305-7.37-1.066-10.614-3.151-3.82-2.46-5.495-3.901-4.018-6.912.866-1.71 3.245-3.152 6.396-.668 0 0 4.253 3.386 11.118 3.386s11.117-3.386 11.117-3.386c3.152-2.472 5.518-1.043 6.397.668 1.452 3.01-.223 4.452-4.042 6.923z"/><path fill="none" stroke="#fff" stroke-dasharray="1 1" stroke-miterlimit="20" d="M11.532 15.194c0 4.112 3.35 7.463 7.463 7.463 4.112 0 7.462-3.35 7.462-7.463 0-4.147-3.35-7.497-7.462-7.497s-7.463 3.35-7.463 7.497zm-7.732 0C3.8 6.794 10.63 0 18.995 0c8.364 0 15.194 6.795 15.194 15.194 0 8.365-6.83 15.16-15.194 15.16-8.365 0-15.195-6.795-15.195-15.16zM32.48 39.128c-3.21 2.039-7.627 2.847-10.544 3.152l2.449 2.413 8.938 8.939c3.269 3.35-2.05 8.587-5.353 5.354a1886.1 1886.1 0 0 0-8.939-8.974l-8.939 8.962c-3.303 3.221-8.622-2.062-5.318-5.354 2.272-2.273 5.518-5.553 8.938-8.939l2.414-2.413c-2.882-.305-7.37-1.066-10.614-3.151-3.82-2.46-5.495-3.901-4.018-6.912.866-1.71 3.245-3.152 6.396-.668 0 0 4.253 3.386 11.118 3.386s11.117-3.386 11.117-3.386c3.152-2.472 5.518-1.043 6.397.668 1.452 3.01-.223 4.452-4.042 6.923z"/></g></g></svg>