<?xml version="1.0" encoding="UTF-8"?>
<!DOCTYPE svg PUBLIC "-//W3C//DTD SVG 1.1//EN" "http://www.w3.org/Graphics/SVG/1.1/DTD/svg11.dtd">
<!-- Creator: CorelDRAW 2019 (64-Bit) -->
<svg xmlns="http://www.w3.org/2000/svg" xml:space="preserve" width="91.3694mm" height="168.628mm" version="1.1" style="shape-rendering:geometricPrecision; text-rendering:geometricPrecision; image-rendering:optimizeQuality; fill-rule:evenodd; clip-rule:evenodd"
viewBox="0 0 9136.94 16862.78"
 xmlns:xlink="http://www.w3.org/1999/xlink">
 <defs>
  <style type="text/css">
   <![CDATA[
    .fil0 {fill:#2B2A29;fill-rule:nonzero}
   ]]>
  </style>
 </defs>
 <g id="Слой_x0020_1">
  <metadata id="CorelCorpID_0Corel-Layer"/>
  <path class="fil0" d="M-79092.72 -98041.19l83.11 -215.2c45.72,-23.56 88.48,-35.42 128.42,-35.42 37.81,0 65.05,7.48 81.84,22.44 17.92,15.95 26.81,42.62 26.81,79.87 0,13.26 -1.55,26.39 -4.66,39.23 25.69,-51.51 45.87,-85.37 60.54,-101.74 27.1,-30.48 61.81,-45.72 104,-45.72 10.02,0 24.7,0.7 44.31,2.11 19.61,1.42 34.29,2.12 44.31,2.12 6.35,0 14.96,-2.4 25.96,-7.05 11.01,-4.66 19.34,-7.06 24.84,-7.34l0.85 0.84 0 1.56c-2.4,4.37 -5.37,10.58 -8.75,18.34l0 0.85c-34.15,79.3 -61.25,118.95 -81.42,118.95 -7.2,0 -17.78,-0.28 -32.04,-0.84 -14.11,-0.57 -24.69,-0.85 -31.89,-0.85 -60.25,0 -100.61,8.33 -120.79,25.12 -27.09,22.58 -50.52,70.41 -70.13,143.23l-65.34 242.71c-2.68,9.45 12,23.42 44.03,41.77l-174.84 -0.85c22.02,-5.22 37.96,-11.43 47.7,-18.48 11.99,-9.18 21.17,-23.43 27.09,-42.9l71.4 -231c9.46,-30.76 14.12,-58.99 14.12,-84.67 0,-41.48 -21.17,-62.23 -63.36,-62.23 -38.1,0 -70.7,11.15 -97.65,33.45 -20.75,17.07 -42.05,44.59 -63.93,82.55l-14.53 -0.85zm491.07 -107.39c-29.07,19.34 -47.13,41.49 -53.91,66.04l-32.31 114.59c-4.66,16.93 -7.06,32.03 -7.06,45.43 0,9.74 5.22,18.77 15.67,26.96 9.73,7.33 19.61,11 29.63,11 19.19,0 37.11,-12.7 53.9,-38.24 7.34,-11.15 17.93,-32.31 31.47,-63.64l10.3 0.85 -92.57 272.06 -14.53 0 10.16 -38.1c-27.23,20.88 -48.68,31.47 -64.06,31.47 -45.16,0 -67.74,-19.48 -67.74,-58.28 0,-12.14 3.11,-29.35 9.31,-51.65l70.56 -250.19c6.92,-24.55 19.19,-41.77 37.11,-51.5 11.72,-6.21 33.02,-11.86 64.07,-16.8zm-489.52 264.02c-6.77,-22.43 -20.04,-40.64 -39.93,-54.61 -19.76,-13.83 -41.49,-20.74 -65.48,-20.74 -27.23,0 -50.94,7.2 -71.12,21.73 -22.29,16.23 -33.44,37.54 -33.44,63.78 0,25.4 9.73,46.15 29.07,62.23 18.2,14.96 40.35,22.44 66.6,22.44 32.74,0 63.22,-8.18 91.3,-24.41 29.77,-17.36 50.52,-40.64 62.09,-69.99l33.87 -85.38c13.83,-35.27 20.88,-60.67 20.88,-76.34 0,-14.96 -6.21,-23.7 -18.63,-26.1 6.07,-13.27 17.36,-26.11 33.87,-38.1 17.64,-12.56 33.59,-18.91 47.7,-18.91 5.78,0 11.99,0.84 18.48,2.4 -9.17,7.33 -16.51,18.76 -22.01,34.15 -3.67,13.12 -7.34,26.38 -11.01,39.79 -12.56,43.46 -25.26,87.21 -37.82,130.95 -19.19,58.56 -39.37,100.47 -60.67,126.01 -49.39,58.71 -110.92,88.06 -184.72,88.06 -54.61,0 -99.77,-12.42 -135.47,-37.4 -40.92,-28.64 -61.38,-69.28 -61.38,-121.78 0,-43.88 17.07,-80.43 51.22,-109.92 32.74,-28.37 71.41,-42.48 115.72,-42.48 41.48,0 78.59,12.14 111.47,36.27 35.42,25.68 55.32,58.42 59.41,98.35zm877.44 -138.99l-124.32 63.22c-6.07,-6.5 -15.95,-9.74 -29.92,-9.74 -24.27,0 -45.43,13.83 -63.92,41.49 -16.51,25.11 -24.84,50.51 -24.84,76.06 0,14.53 4.52,26.95 13.69,37.25 9.03,10.3 20.6,15.38 34.86,15.38 26.1,0 48.12,-14.96 65.9,-44.87 15.38,-26.11 23,-52.78 23,-80.16 0,-8.6 -2.12,-17.35 -6.35,-25.96l111.9 -55.6c-11.29,31.33 -22.58,62.94 -33.87,94.55 -19.19,54.61 -28.79,86.78 -28.79,96.66 0,10.3 5.65,15.38 16.94,15.38 8.89,0 22.58,-15.66 40.92,-47.13l8.33 1.55c-13.69,28.65 -27.24,57.29 -40.64,85.8 -19.34,34.15 -43.33,51.22 -71.69,51.22 -27.52,0 -41.34,-16.65 -41.34,-50.09 0,-15.24 1.97,-29.07 5.92,-41.35 -24.97,33.16 -39.51,52.07 -43.74,56.87 -21.17,23 -40.78,34.57 -58.56,34.57 -21.88,0 -40.08,-8.61 -54.76,-25.68 -14.25,-16.23 -21.3,-35.42 -21.3,-57.58 0,-60.53 23.56,-119.8 70.83,-177.94 49.68,-61.24 103.72,-91.86 162.28,-91.86 43.61,0 73.38,12.7 89.47,37.96zm20.6 315.95c-50.1,0 -75.21,-20.46 -75.21,-61.39 0,-22.43 6.63,-40.21 19.75,-53.76 13.13,-13.55 30.76,-20.32 53.06,-20.32 16.09,0 29.49,5.64 40.22,16.79 -5.79,0 -11.43,2.68 -17.22,8.05 -5.78,5.36 -8.61,10.86 -8.61,16.65 0,10.16 4.8,15.24 14.54,15.24 14.39,0 27.66,-17.5 39.79,-52.36 11.01,-35.42 22.01,-70.83 33.02,-106.54 15.52,-43.32 33.3,-72.1 53.62,-86.5 13.83,-9.73 29.64,-15.8 47.14,-18.06 7.62,-1.13 24.55,-1.55 50.8,-1.55 14.39,0 34.85,-1.69 61.38,-4.8 37.82,-4.37 58.42,-6.77 61.81,-7.05l-1.56 9.45c-16.37,4.52 -28.92,10.72 -37.81,18.49 -16.94,15.09 -43.18,81.42 -78.89,199.25 -4.51,14.67 -6.77,22.86 -6.77,24.41 0,12.13 4.94,18.2 14.96,18.2 9.31,0 24.98,-19.19 46.99,-57.57l9.17 4.8c-11.29,30.62 -26.39,62.93 -45.44,96.8 -14.39,25.82 -34.71,38.66 -60.67,38.66 -37.12,0 -55.6,-18.77 -55.6,-56.3 0,-21.87 9.45,-56.45 28.5,-103.86 18.91,-47.27 28.51,-82.55 28.51,-105.69 0,-8.19 -1.56,-14.11 -4.38,-17.78 -1.83,-0.43 -3.95,-1.41 -6.35,-2.68 -1.83,0.28 -3.38,0.84 -4.65,1.97 -13.69,11.29 -28.93,43.18 -45.72,95.96 -19.9,62.09 -37.12,104.7 -51.65,127.7 -26.53,42.48 -60.68,63.79 -102.73,63.79zm728.84 -330.63c0,-7.62 -1.27,-15.38 -3.95,-23.28 19.19,5.08 37.11,7.62 53.91,7.62 10.86,0 31.32,-2.54 61.52,-7.62 -14.67,20.32 -36.26,64.63 -64.63,132.93 -27.09,65.33 -40.5,103.01 -40.5,113.03 0,13.97 6.07,20.88 18.49,20.88 10.72,0 23.71,-16.51 38.95,-49.53l6.35 3.11c-11.58,29.91 -25.55,56.58 -41.77,80.01 -23.43,33.02 -46.01,49.53 -67.74,49.53 -31.75,0 -47.69,-14.4 -47.69,-43.33 0,-14.39 3.67,-32.03 11,-52.77 6.64,-17.08 12.99,-34.01 19.34,-50.94 11.28,-30.48 22.57,-60.82 33.86,-91.02 15.24,-42.76 22.86,-72.39 22.86,-88.62zm-267.83 24.13c0,-21.02 -10.02,-36.26 -29.91,-45.72 22.58,3.95 53.48,5.93 92.57,5.93 30.76,0 45.29,0 43.74,0 -5.78,9.17 -14.53,23 -26.1,41.63 -11.58,19.33 -26.67,51.5 -45.3,96.23 -21.31,50.52 -31.89,83.12 -31.89,97.8 0,16.79 5.64,25.11 16.93,25.11 29.35,0 53.34,-15.1 71.97,-45.15 1.69,-2.54 5.5,-13.27 11.85,-32.18 0,-23.56 -8.47,-35.27 -25.54,-35.27 -14.11,0 -31.04,8.04 -50.66,24.13 5.65,-11.43 16.65,-22.02 33.02,-31.61 16.23,-9.74 30.34,-14.54 42.48,-14.54 20.17,0 37.67,6.63 52.35,19.76 14.67,13.12 22.01,29.77 22.01,49.81 0,14.68 -5.93,33.02 -17.78,54.89 -16.23,30.34 -36.12,52.78 -59.69,67.17 -31.04,19.05 -60.25,28.51 -87.77,28.51 -58,0 -87.07,-24.56 -87.07,-73.8 0,-33.02 12.42,-76.91 37.4,-131.24 24.98,-54.47 37.39,-88.33 37.39,-101.46zm899.17 -41.48c-20.46,22.71 -38.81,55.31 -55.18,97.64 -11.71,35.42 -23.7,70.56 -35.84,105.7 -6.49,18.48 -9.74,30.76 -9.74,36.83 0,11.71 6.21,17.64 18.91,17.64 10.44,0 23.29,-14.68 38.53,-44.03l8.6 2.26c-35.7,87.35 -72.67,131.09 -111.05,131.09 -31.75,0 -47.56,-18.63 -47.56,-55.74 0,-20.18 4.1,-35.56 12.14,-46.14 -31.75,39.93 -48.68,60.82 -50.8,62.93 -23.57,24.42 -46.43,36.69 -68.44,36.69 -29.77,0 -44.59,-15.52 -44.59,-46.56 0,-20.47 2.68,-37.12 7.9,-49.96 -46.71,65.9 -84.53,98.78 -113.45,98.78 -33.31,0 -49.96,-14.25 -49.96,-42.9 0,-19.19 7.48,-50.66 22.44,-94.4 10.58,-28.93 21.03,-57.72 31.47,-86.22 3.24,-9.17 4.8,-14.54 4.8,-16.09 0,-11.85 -5.93,-17.78 -17.78,-17.78 -11.29,0 -22.02,15.52 -32.32,46.43l-8.61 -2.4c26.53,-89.18 61.95,-133.77 106.26,-133.77 12.14,0 23,3.81 32.74,11.43 10.02,8.32 14.96,18.48 14.96,30.33 0,14.4 -10.02,47.56 -29.92,99.49 -19.9,52.07 -29.91,83.11 -29.91,93.27 0,16.65 6.91,24.84 20.88,24.84 19.61,0 37.25,-13.83 52.78,-41.77 5.78,-10.72 14.81,-33.3 27.09,-67.73 7.48,-18.91 14.67,-37.82 21.73,-56.59 9.74,-26.53 14.53,-46.71 14.53,-60.25 0,-9.32 -1.83,-19.48 -5.5,-30.77 17.36,2.12 34.29,3.11 50.8,3.11 20.46,0 40.92,-2.68 61.38,-7.9 -13.26,17.63 -28.92,50.51 -46.84,98.91 -11.01,32.04 -22.02,64.07 -33.02,96.1 -8.19,22.58 -12.28,37.4 -12.28,44.45 0,14.96 6.77,22.44 20.18,22.44 25.12,0 51.93,-33.16 80.29,-99.63 25.54,-59.12 38.24,-103.85 38.24,-134.19 0,-8.47 -1.55,-16.94 -4.8,-25.54 22.58,2.54 45.16,3.81 67.74,3.81 9.73,0 27.51,-1.27 53.2,-3.81zm284.76 146.75l-3.81 7.06c-17.36,-21.03 -32.03,-35.14 -44.17,-42.2 -15.1,-8.89 -35.28,-13.4 -60.11,-13.4 -22.58,0 -41.91,5.93 -58.28,17.78 -18.06,13.26 -27.1,30.76 -27.1,52.21 0,23.71 11.43,42.76 34.29,57.15 19.62,12.28 42.06,18.49 67.17,18.49 35.7,0 69.15,-15.95 100.47,-47.7 26.39,-26.67 46.57,-59.13 60.12,-97.08l67.73 -186.98c-11.57,4.38 -25.82,6.64 -42.9,6.64 -8.46,0 -20.03,-1.98 -34.71,-5.93 -14.68,-3.95 -24.55,-5.79 -29.49,-5.79 -22.3,0 -39.65,10.3 -51.93,31.05 -2.68,3.95 -10.73,23.7 -24.13,59.41l-13.69 0 70.84 -215.48c24.69,-4.24 46.99,-6.35 66.89,-6.35 11.85,0 29.35,2.4 52.63,7.19 23.28,4.8 40.78,7.2 52.49,7.2 12.42,0 24.7,-3.39 37.12,-10.3 13.83,-7.48 22.15,-16.65 24.83,-27.8l12.98 0 -26.38 46c-22.86,39.8 -51.51,120.65 -85.94,242.72l12.98 -11.72c14.25,-37.25 38.53,-87.63 72.96,-151.27 42.89,-79.3 98.49,-118.96 166.79,-118.96 32.03,0 58.42,10.59 79.02,31.75 20.61,21.17 30.91,47.56 30.91,79.31 0,29.91 -10.02,54.89 -29.92,74.93 -20.04,19.9 -45.01,29.92 -75.07,29.92 -51.22,0 -81.99,-23.15 -92.29,-69.29 2.97,0.56 6.21,0.85 9.88,0.85 21.03,0 31.61,-7.77 31.61,-23.43 0,-16.09 -10.02,-24.13 -29.92,-24.13 -31.32,0 -62.23,20.32 -92.99,60.82 -10.72,14.11 -31.18,47.98 -61.1,101.32 37.54,-31.75 66.46,-47.7 86.92,-47.7 10.73,0 19.62,4.1 26.53,12.14 6.92,7.9 10.45,17.5 10.45,28.5 0,15.24 -4.8,39.94 -14.54,74.23 -9.59,34.29 -14.39,56.72 -14.39,67.45 0,10.02 3.53,19.05 10.86,27.09 7.2,7.9 15.81,12 25.69,12 25.96,0 48.11,-11.29 66.18,-33.87 6.35,-7.9 19.19,-30.2 38.66,-67.03l12.98 2.4 -97.65 248.92 -11.71 -2.96 15.95 -45.02c-29.21,28.79 -60.12,43.18 -92.71,43.18 -22.44,0 -40.5,-5.92 -54.47,-17.63 -14.96,-12.7 -22.44,-29.92 -22.44,-51.65 0,-9.74 7.34,-37.11 22.02,-81.99 9.45,-28.93 19.19,-57.71 28.92,-86.64 8.61,-27.38 12.99,-43.74 12.99,-49.25 0,-15.52 -7.06,-23.28 -21.31,-23.28 -15.67,0 -33.16,16.65 -52.35,49.95 -6.35,11.29 -17.64,35.42 -33.87,72.53 -14.96,34.01 -29.92,61.95 -44.88,83.82 -23.7,34.29 -52.21,61.53 -85.51,81.43 -36.26,21.59 -73.94,32.31 -113.03,32.31 -81,0 -138.15,-24.27 -171.87,-72.81 -18.35,-26.53 -27.52,-53.77 -27.52,-81.85 0,-21.59 5.08,-43.32 15.38,-65.47 27.52,-59.27 79.87,-88.9 157.06,-88.9 34.43,0 66.04,10.01 94.97,29.91 27.23,18.77 48.96,44.17 64.91,76.2zm586.04 197.84c-28.08,0 -51.08,-10.58 -69.29,-31.89l39.37 -104.85c9.74,18.21 16.09,29.5 19.34,33.59 9.17,11.71 19.89,17.64 32.17,17.64 27.23,0 49.67,-13.13 67.31,-39.37 15.38,-23 23.14,-48.83 23.14,-77.47 0,-44.6 -18.06,-66.89 -54.33,-66.89 -45.15,0 -88.61,55.88 -130.67,167.5 -32.17,85.94 -52.35,163.55 -60.11,232.83 -1.13,9.03 -2.4,27.66 -3.95,56.02 -38.38,-5.08 -62.65,-7.62 -72.81,-7.62 -17.64,0 -35,2.54 -52.36,7.62 46.01,-68.44 91.16,-166.08 135.47,-292.94 33.87,-96.52 50.8,-156.92 50.8,-181.19 0,-26.81 -13.12,-43.75 -39.37,-50.94 30.76,0 75.92,-6.07 135.47,-18.49 -8.61,25.54 -21.31,63.64 -37.82,114.16 29.63,-46.57 44.45,-69.99 44.45,-69.99 20.46,-25.54 43.18,-38.24 68.44,-38.24 30.9,0 53.62,15.24 68.01,45.72 11.01,23 16.51,52.21 16.51,87.35 0,49.67 -17.35,97.51 -51.92,143.37 -37.26,49.39 -79.87,74.08 -127.85,74.08zm307.2 -194.73c14.39,22.01 32.17,33.02 53.2,33.02 15.24,0 29.07,-6.07 41.77,-18.21 12.56,-12.27 18.91,-25.96 18.91,-41.34 0,-14.82 -5.65,-27.1 -16.94,-36.55 -10.58,-8.75 -23.42,-13.12 -38.38,-13.12 -22.43,0 -41.91,11.85 -58.42,35.41 -15.1,21.31 -22.58,43.61 -22.58,66.89 0,25.26 9.74,46.57 29.21,63.78 18.63,16.8 40.79,25.26 66.19,25.26 27.65,0 55.17,-10.58 82.69,-31.61 27.37,-21.02 45.58,-44.87 54.61,-71.26l10.58 2.4c-4.94,15.95 -18.77,43.32 -41.35,82.13 -37.53,64.77 -83.67,97.08 -138.57,97.08 -35.7,0 -65.19,-13.4 -88.19,-40.21 -21.87,-25.4 -32.74,-56.31 -32.74,-92.43 0,-39.65 10.72,-77.05 32.31,-112.19 20.75,-34.14 48.83,-61.38 84.11,-81.56 25.68,-14.96 49.1,-22.43 70.13,-22.43 64.21,0 96.24,30.62 96.24,92 0,32.6 -12.98,61.52 -39.09,86.78 -25.96,25.26 -55.32,37.96 -87.91,37.96 -18.21,0 -34.86,-5.64 -49.81,-17.07 -16.23,-12.42 -24.98,-27.24 -25.97,-44.73zm219.14 193.88c14.68,-20.46 36.13,-64.63 64.35,-132.22 27.09,-64.63 40.64,-102.45 40.64,-113.17 0,-13.97 -6.21,-20.88 -18.63,-20.88 -10.72,0 -23.7,16.65 -38.66,49.95l-6.77 -3.53c11.28,-29.21 25.4,-55.88 42.19,-80.15 23.56,-33.16 46.14,-49.67 67.73,-49.67 31.75,0 47.7,14.53 47.7,43.46 0,7.62 -2.26,25.97 -6.78,54.89 1.27,-2.68 4.38,-7.33 9.04,-14.25 23.14,-32.6 36.97,-51.22 41.34,-55.6 18.2,-19.05 38.24,-28.5 60.26,-28.5 34.85,0 52.35,17.5 52.35,52.49 0,15.95 -10.16,48.26 -30.34,96.95 -20.18,48.54 -30.2,79.44 -30.2,92.57 0,10.86 4.52,16.22 13.69,16.22 13.4,0 24.98,-15.1 34.71,-45.29l9.88 3.1 -35.42 77.19c-17.36,37.68 -41.2,56.44 -71.4,56.44 -29.92,0 -44.87,-14.53 -44.87,-43.46 0,-17.07 10.86,-52.77 32.59,-107.24 21.59,-54.47 32.46,-87.07 32.46,-97.79 0,-6.92 -2.68,-12.85 -8.19,-17.78 -5.5,-4.94 -11.71,-7.48 -18.48,-7.48 -23.14,0 -50.8,36.4 -83.4,109.36 -29.77,66.89 -44.73,113.88 -44.73,141.25 0,7.48 1.41,15.24 4.37,23.14 -19.47,-5.08 -37.53,-7.62 -54.33,-7.62 -10.58,0 -30.9,2.54 -61.1,7.62zm771.46 -326.39c0,-7.62 -1.27,-15.38 -3.95,-23.28 19.19,5.08 37.11,7.62 53.91,7.62 10.86,0 31.32,-2.54 61.52,-7.62 -14.67,20.32 -36.26,64.63 -64.63,132.93 -27.09,65.33 -40.5,103.01 -40.5,113.03 0,13.97 6.07,20.88 18.49,20.88 10.72,0 23.71,-16.51 38.95,-49.53l6.35 3.11c-11.58,29.91 -25.55,56.58 -41.77,80.01 -23.43,33.02 -46.01,49.53 -67.74,49.53 -31.75,0 -47.69,-14.4 -47.69,-43.33 0,-14.39 3.67,-32.03 11,-52.77 6.64,-17.08 12.99,-34.01 19.34,-50.94 11.28,-30.48 22.57,-60.82 33.86,-91.02 15.24,-42.76 22.86,-72.39 22.86,-88.62zm-267.83 24.13c0,-21.02 -10.02,-36.26 -29.91,-45.72 22.58,3.95 53.48,5.93 92.57,5.93 30.76,0 45.29,0 43.74,0 -5.78,9.17 -14.53,23 -26.1,41.63 -11.58,19.33 -26.67,51.5 -45.3,96.23 -21.31,50.52 -31.89,83.12 -31.89,97.8 0,16.79 5.64,25.11 16.93,25.11 29.35,0 53.34,-15.1 71.97,-45.15 1.69,-2.54 5.5,-13.27 11.85,-32.18 0,-23.56 -8.47,-35.27 -25.54,-35.27 -14.11,0 -31.04,8.04 -50.66,24.13 5.65,-11.43 16.65,-22.02 33.02,-31.61 16.23,-9.74 30.34,-14.54 42.48,-14.54 20.17,0 37.67,6.63 52.35,19.76 14.67,13.12 22.01,29.77 22.01,49.81 0,14.68 -5.93,33.02 -17.78,54.89 -16.23,30.34 -36.12,52.78 -59.69,67.17 -31.04,19.05 -60.25,28.51 -87.77,28.51 -58,0 -87.07,-24.56 -87.07,-73.8 0,-33.02 12.42,-76.91 37.4,-131.24 24.98,-54.47 37.39,-88.33 37.39,-101.46zm899.17 -41.48c-20.46,22.71 -38.81,55.31 -55.18,97.64 -11.71,35.42 -23.7,70.56 -35.84,105.7 -6.49,18.48 -9.74,30.76 -9.74,36.83 0,11.71 6.21,17.64 18.91,17.64 10.44,0 23.29,-14.68 38.53,-44.03l8.6 2.26c-35.7,87.35 -72.67,131.09 -111.05,131.09 -31.75,0 -47.56,-18.63 -47.56,-55.74 0,-20.18 4.1,-35.56 12.14,-46.14 -31.75,39.93 -48.68,60.82 -50.8,62.93 -23.57,24.42 -46.43,36.69 -68.44,36.69 -29.77,0 -44.59,-15.52 -44.59,-46.56 0,-20.47 2.68,-37.12 7.9,-49.96 -46.71,65.9 -84.53,98.78 -113.45,98.78 -33.31,0 -49.96,-14.25 -49.96,-42.9 0,-19.19 7.48,-50.66 22.44,-94.4 10.58,-28.93 21.03,-57.72 31.47,-86.22 3.24,-9.17 4.8,-14.54 4.8,-16.09 0,-11.85 -5.93,-17.78 -17.78,-17.78 -11.29,0 -22.02,15.52 -32.32,46.43l-8.61 -2.4c26.53,-89.18 61.95,-133.77 106.26,-133.77 12.14,0 23,3.81 32.74,11.43 10.02,8.32 14.96,18.48 14.96,30.33 0,14.4 -10.02,47.56 -29.92,99.49 -19.9,52.07 -29.91,83.11 -29.91,93.27 0,16.65 6.91,24.84 20.88,24.84 19.61,0 37.25,-13.83 52.78,-41.77 5.78,-10.72 14.81,-33.3 27.09,-67.73 7.48,-18.91 14.67,-37.82 21.73,-56.59 9.74,-26.53 14.53,-46.71 14.53,-60.25 0,-9.32 -1.83,-19.48 -5.5,-30.77 17.36,2.12 34.29,3.11 50.8,3.11 20.46,0 40.92,-2.68 61.38,-7.9 -13.26,17.63 -28.92,50.51 -46.84,98.91 -11.01,32.04 -22.02,64.07 -33.02,96.1 -8.19,22.58 -12.28,37.4 -12.28,44.45 0,14.96 6.77,22.44 20.18,22.44 25.12,0 51.93,-33.16 80.29,-99.63 25.54,-59.12 38.24,-103.85 38.24,-134.19 0,-8.47 -1.55,-16.94 -4.8,-25.54 22.58,2.54 45.16,3.81 67.74,3.81 9.73,0 27.51,-1.27 53.2,-3.81z"/>
 </g>
</svg>
