<svg xmlns="http://www.w3.org/2000/svg" width="350" height="58" viewBox="0 0 350 58"><g><g><path fill="#fff" d="M349.86 18.656zm-3.579 7.227a825.901 825.901 0 0 1-2.328 7.828c-.422 1.36-.633 2.281-.633 2.719 0 .86.414 1.32 1.227 1.32.687 0 1.516-1.094 2.492-3.273l.563.18c-2.313 6.452-4.704 9.687-7.196 9.687-2.062 0-3.078-1.383-3.078-4.133 0-1.484.258-2.625.781-3.406-2.062 2.953-3.156 4.508-3.296 4.664-1.524 1.797-3.008 2.695-4.43 2.695-1.938 0-2.89-1.14-2.89-3.43 0-1.507.179-2.75.5-3.695-3.024 4.867-5.477 7.305-7.352 7.305-2.164 0-3.235-1.047-3.235-3.172 0-1.422.477-3.758 1.453-6.992.688-2.133 1.36-4.258 2.04-6.367.21-.688.304-1.063.304-1.196 0-.875-.383-1.32-1.14-1.32-.743 0-1.438 1.156-2.102 3.445l-.555-.18c1.719-6.601 4.024-9.906 6.883-9.906.79 0 1.5.29 2.125.86.649.601.977 1.359.977 2.234 0 1.078-.657 3.523-1.946 7.367s-1.945 6.14-1.945 6.899c0 1.234.445 1.843 1.36 1.843 1.265 0 2.406-1.039 3.413-3.093.391-.805.97-2.461 1.766-5.024.492-1.398.953-2.797 1.406-4.187.641-1.953.938-3.453.938-4.453 0-.68-.102-1.438-.36-2.266 1.133.156 2.235.227 3.305.227 1.328 0 2.656-.196 3.977-.586-.86 1.296-1.867 3.726-3.04 7.312-.71 2.375-1.421 4.742-2.132 7.11-.54 1.68-.805 2.78-.805 3.304 0 1.086.445 1.656 1.313 1.656 1.625 0 3.367-2.46 5.203-7.382 1.656-4.375 2.484-7.688 2.484-9.93 0-.617-.101-1.242-.312-1.89 1.468.195 2.937.288 4.39.288.633 0 1.79-.093 3.453-.289-1.328 1.688-2.523 4.102-3.578 7.227zm-54.726-4.14c0-1.555-.64-2.68-1.93-3.4 1.453.305 3.469.446 6 .446h2.828c-.367.672-.93 1.703-1.687 3.094-.758 1.406-1.735 3.789-2.938 7.094-1.39 3.75-2.07 6.164-2.07 7.234 0 1.258.367 1.867 1.101 1.867 1.907 0 3.454-1.117 4.664-3.344.11-.18.352-.968.766-2.367 0-1.75-.547-2.625-1.656-2.625-.906 0-2.016.617-3.274 1.781.36-.828 1.07-1.625 2.133-2.328 1.055-.726 1.969-1.07 2.758-1.07 1.305 0 2.445.492 3.39 1.461.954.953 1.43 2.203 1.43 3.687 0 1.086-.39 2.438-1.164 4.055-1.039 2.235-2.328 3.906-3.867 4.969-2.008 1.414-3.898 2.11-5.68 2.11-3.757 0-5.648-1.821-5.648-5.446 0-2.453.805-5.703 2.422-9.727 1.625-4.023 2.422-6.523 2.422-7.492zm17.375-1.79c0-.57-.094-1.14-.266-1.734 1.25.375 2.406.57 3.5.57.695 0 2.031-.195 3.984-.57-.945 1.515-2.351 4.789-4.187 9.836-1.758 4.843-2.625 7.64-2.625 8.367 0 1.031.383 1.555 1.195 1.555.696 0 1.547-1.235 2.532-3.664l.406.218c-.758 2.211-1.649 4.18-2.703 5.914-1.524 2.446-2.985 3.68-4.399 3.68-2.054 0-3.094-1.078-3.094-3.227 0-1.062.243-2.367.72-3.882.429-1.282.835-2.54 1.25-3.766.726-2.266 1.468-4.508 2.195-6.758.992-3.148 1.492-5.351 1.492-6.539zM258.906 44.11c.953-1.539 2.352-4.804 4.172-9.796 1.758-4.79 2.64-7.563 2.64-8.368 0-1.03-.405-1.554-1.218-1.554-.687 0-1.523 1.242-2.508 3.703l-.437-.274a30.648 30.648 0 0 1 2.734-5.914c1.531-2.46 3-3.687 4.399-3.687 2.054 0 3.085 1.086 3.085 3.219 0 .562-.14 1.921-.43 4.07.079-.211.282-.555.579-1.047 1.5-2.422 2.398-3.813 2.687-4.117 1.18-1.414 2.477-2.125 3.907-2.125 2.257 0 3.39 1.304 3.39 3.883 0 1.187-.656 3.57-1.968 7.187-1.313 3.594-1.954 5.875-1.954 6.844 0 .805.282 1.195.883 1.195.867 0 1.617-1.117 2.25-3.344l.64.235-2.296 5.695c-1.117 2.797-2.664 4.195-4.633 4.195-1.937 0-2.906-1.086-2.906-3.234 0-1.258.71-3.898 2.117-7.922 1.399-4.039 2.094-6.46 2.094-7.242 0-.516-.164-.945-.524-1.32-.359-.36-.765-.555-1.195-.555-1.5 0-3.297 2.703-5.406 8.094-1.93 4.953-2.89 8.43-2.89 10.445 0 .555.077 1.14.265 1.734-1.25-.398-2.422-.578-3.524-.578-.671 0-2.007.18-3.953.578zm-14.21-14.367zm3.452 2.445c.985 0 1.883-.453 2.704-1.343.812-.907 1.226-1.922 1.226-3.063 0-1.086-.367-1.992-1.094-2.703-.68-.648-1.523-.96-2.492-.96-1.453 0-2.719.882-3.789 2.632-.984 1.555-1.46 3.21-1.46 4.945 0 1.867.624 3.43 1.89 4.696 1.21 1.25 2.648 1.882 4.297 1.882 1.789 0 3.57-.789 5.36-2.343 1.773-1.555 2.952-3.328 3.546-5.258l.68.172c-.32 1.172-1.22 3.195-2.68 6.054-2.43 4.805-5.43 7.211-8.992 7.211-2.305 0-4.219-1.007-5.711-2.992-1.422-1.875-2.125-4.164-2.125-6.82 0-2.953.695-5.711 2.094-8.328 1.351-2.508 3.171-4.531 5.453-6.016 1.664-1.117 3.187-1.656 4.547-1.656 4.171 0 6.242 2.25 6.242 6.797 0 2.422-.844 4.554-2.531 6.422-1.696 1.875-3.586 2.804-5.704 2.804-1.18 0-2.265-.414-3.226-1.265-1.047-.907-1.625-2.008-1.688-3.313.93 1.656 2.086 2.446 3.453 2.446zm-23.367 11.961c-1.828 0-3.312-.765-4.492-2.359l2.547-7.75c.633 1.36 1.047 2.172 1.258 2.484.586.868 1.289 1.305 2.078 1.305 1.773 0 3.226-.984 4.375-2.906.992-1.711 1.492-3.617 1.492-5.742 0-3.297-1.172-4.946-3.516-4.946-2.93 0-5.742 4.149-8.476 12.391-2.086 6.375-3.39 12.11-3.89 17.234-.079.672-.165 2.032-.274 4.141-2.469-.375-4.055-.57-4.711-.57-1.14 0-2.266.195-3.39.57 2.976-5.07 5.913-12.297 8.78-21.672 2.188-7.148 3.297-11.61 3.297-13.398 0-1.992-.851-3.25-2.546-3.766 1.984 0 4.914-.453 8.78-1.36-.57 1.876-1.39 4.688-2.452 8.43 1.914-3.445 2.882-5.171 2.882-5.171 1.32-1.899 2.79-2.844 4.438-2.844 2 0 3.469 1.14 4.398 3.39.72 1.696 1.079 3.86 1.079 6.446 0 3.68-1.133 7.226-3.375 10.617-2.415 3.664-5.172 5.476-8.282 5.476zm-38.008-14.625l-.242.516c-1.117-1.555-2.078-2.601-2.86-3.125-.976-.656-2.288-.984-3.89-.984-1.468 0-2.726.445-3.797 1.312-1.164.985-1.75 2.281-1.75 3.867 0 1.766.743 3.172 2.227 4.227 1.273.906 2.727 1.383 4.36 1.383 2.312 0 4.476-1.203 6.515-3.54 1.703-1.976 3.016-4.382 3.89-7.195l4.391-13.828c-.75.328-1.664.492-2.781.492-.547 0-1.305-.14-2.25-.437-.945-.29-1.586-.43-1.914-.43-1.438 0-2.57.75-3.36 2.297-.18.297-.703 1.758-1.57 4.399h-.883l4.586-15.938c1.602-.312 3.055-.469 4.344-.469.766 0 1.899.172 3.406.532 1.516.351 2.649.53 3.407.53.804 0 1.601-.241 2.406-.765.898-.554 1.437-1.242 1.61-2.054h.85l-1.718 3.406c-1.484 2.937-3.336 8.922-5.57 17.953l.836-.875c.922-2.75 2.5-6.461 4.734-11.18C204.531 3.742 208.133.82 212.563.82c2.078 0 3.789.774 5.125 2.352 1.343 1.555 2.007 3.508 2.007 5.851 0 2.227-.656 4.07-1.945 5.547-1.297 1.485-2.914 2.211-4.867 2.211-3.32 0-5.313-1.71-5.977-5.125.18.047.39.063.633.063 1.367 0 2.047-.586 2.047-1.735 0-1.18-.648-1.773-1.938-1.773-2.03 0-4.03 1.484-6.03 4.492-.688 1.047-2.024 3.547-3.962 7.492 2.438-2.351 4.313-3.53 5.633-3.53.703 0 1.274.296 1.727.89.453.601.672 1.312.672 2.125 0 1.117-.313 2.953-.938 5.492-.617 2.539-.93 4.195-.93 4.992 0 .742.227 1.399.696 2 .468.594 1.023.89 1.68.89 1.671 0 3.109-.843 4.28-2.515.407-.578 1.243-2.234 2.508-4.953l.844.164-6.328 18.414-.766-.219 1.032-3.304c-1.89 2.11-3.899 3.187-6.008 3.187-1.453 0-2.625-.445-3.524-1.312-.976-.946-1.468-2.211-1.468-3.828 0-.711.484-2.75 1.437-6.063.61-2.133 1.242-4.258 1.875-6.39.555-2.04.836-3.25.836-3.657 0-1.148-.46-1.719-1.375-1.719-1.023 0-2.148 1.243-3.398 3.688-.414.828-1.149 2.617-2.188 5.375-.984 2.508-1.945 4.586-2.922 6.187-1.53 2.547-3.382 4.555-5.547 6.032-2.343 1.61-4.78 2.383-7.32 2.383-5.25 0-8.96-1.79-11.14-5.383a12.359 12.359 0 0 1-1.418-3.236c.155-.402.31-.818.464-1.249l-.562-.18-.142.309a10.663 10.663 0 0 1-.132-1.676c0-1.625.329-3.226 1-4.859 1.782-4.39 5.172-6.578 10.18-6.578 2.235 0 4.29.742 6.156 2.219 1.766 1.383 3.18 3.258 4.204 5.633zm-18.445-10.867zm-3.586 7.227a645.96 645.96 0 0 1-2.32 7.828c-.43 1.36-.633 2.281-.633 2.719 0 .86.399 1.32 1.219 1.32.647 0 1.435-.99 2.358-2.965.06.375.14.749.24 1.12-2.169 5.622-4.413 8.439-6.739 8.439-2.062 0-3.078-1.383-3.078-4.133 0-1.484.266-2.625.781-3.406-2.062 2.953-3.156 4.507-3.289 4.664-1.523 1.797-3.015 2.695-4.445 2.695-1.93 0-2.883-1.14-2.883-3.43 0-1.507.172-2.75.508-3.695-3.031 4.867-5.484 7.305-7.36 7.305-2.156 0-3.234-1.047-3.234-3.172 0-1.422.485-3.758 1.453-6.992.696-2.133 1.368-4.258 2.047-6.368.203-.687.305-1.062.305-1.195 0-.875-.383-1.32-1.156-1.32-.735 0-1.422 1.156-2.094 3.445l-.555-.18c1.719-6.601 4.016-9.906 6.89-9.906.79 0 1.485.29 2.118.86.656.601.977 1.359.977 2.234 0 1.078-.657 3.523-1.938 7.367-1.289 3.844-1.945 6.14-1.945 6.89 0 1.243.445 1.852 1.351 1.852 1.274 0 2.414-1.039 3.422-3.093.375-.805.969-2.461 1.766-5.024.476-1.398.945-2.797 1.398-4.187.633-1.953.946-3.453.946-4.461 0-.672-.118-1.43-.36-2.281 1.125.18 2.227.25 3.29.25a14.02 14.02 0 0 0 3.984-.586c-.852 1.296-1.875 3.726-3.04 7.312-.71 2.375-1.421 4.742-2.132 7.11-.54 1.68-.797 2.78-.797 3.304 0 1.086.43 1.656 1.305 1.656 1.625 0 3.367-2.46 5.203-7.382 1.664-4.375 2.476-7.688 2.476-9.93 0-.617-.093-1.242-.304-1.89 1.46.195 2.93.288 4.39.288.625 0 1.781-.093 3.461-.289-1.336 1.688-2.523 4.102-3.586 7.227zm-54.726-4.14c0-1.555-.649-2.68-1.938-3.4 1.469.305 3.469.446 6 .446h2.844c-.375.672-.945 1.703-1.695 3.094-.75 1.406-1.727 3.789-2.946 7.094-1.375 3.75-2.054 6.164-2.054 7.234 0 1.258.351 1.867 1.093 1.867 1.899 0 3.453-1.117 4.672-3.344.102-.195.352-.968.758-2.367 0-1.758-.547-2.625-1.648-2.625-.922 0-2.016.617-3.282 1.781.36-.828 1.07-1.625 2.141-2.328 1.047-.726 1.96-1.086 2.75-1.086 1.305 0 2.437.508 3.398 1.477.954.953 1.422 2.203 1.422 3.687 0 1.086-.383 2.438-1.156 4.055-1.047 2.235-2.336 3.906-3.867 4.969-2.016 1.414-3.906 2.11-5.688 2.11-3.765 0-5.648-1.821-5.648-5.446 0-2.453.805-5.703 2.43-9.727 1.617-4.023 2.414-6.523 2.414-7.492zm17.375-1.79c0-.57-.094-1.14-.266-1.734 1.25.375 2.406.57 3.5.57.703 0 2.031-.195 3.984-.57-.953 1.515-2.343 4.789-4.18 9.836-1.765 4.843-2.632 7.64-2.632 8.367 0 1.031.39 1.555 1.195 1.555.703 0 1.54-1.235 2.531-3.664l.415.218c-.758 2.211-1.657 4.18-2.711 5.914-1.532 2.446-2.977 3.68-4.399 3.68-2.047 0-3.086-1.086-3.086-3.227 0-1.062.235-2.367.711-3.882.43-1.282.844-2.54 1.258-3.766.727-2.266 1.469-4.508 2.195-6.758.985-3.148 1.485-5.351 1.485-6.539zM80.125 44.406c-2.4 0-3.913-.826-4.541-2.475.28-.41.55-.875.807-1.392.827-2.006 1.662-4.026 2.504-6.046.339-.068.7-.102 1.082-.102 1.039 0 1.906.414 2.609 1.242-.375 0-.742.18-1.125.578-.375.406-.555.82-.555 1.242 0 .75.313 1.133.938 1.133.937 0 1.797-1.313 2.586-3.89.718-2.61 1.43-5.212 2.14-7.868 1.008-3.21 2.164-5.351 3.485-6.406a6.135 6.135 0 0 1 3.054-1.336c.485-.078 1.586-.117 3.29-.117.93 0 2.265-.117 3.976-.336 2.453-.336 3.79-.508 4.008-.531l-.102.695c-1.07.336-1.875.805-2.445 1.375-1.102 1.117-2.805 6.023-5.117 14.734-.297 1.086-.438 1.696-.438 1.813 0 .89.313 1.344.961 1.344.61 0 1.633-1.438 3.055-4.274l.594.367c-.727 2.266-1.72 4.649-2.953 7.157-.93 1.914-2.25 2.851-3.93 2.851-2.406 0-3.602-1.375-3.602-4.156 0-1.617.61-4.172 1.852-7.68 1.219-3.492 1.844-6.094 1.844-7.828 0-.602-.11-1.04-.282-1.297a2.075 2.075 0 0 1-.414-.21c-.125.03-.226.07-.297.148-.89.836-1.882 3.195-2.968 7.101-1.29 4.586-2.414 7.742-3.352 9.453-1.726 3.133-3.937 4.711-6.664 4.711zm-4.541-2.475c-1.102 1.614-2.386 2.413-3.85 2.413-1.78 0-2.671-1.242-2.671-3.703 0-1.141.125-2.149.375-3.07-1.618 2.445-2.555 3.843-2.829 4.21-1.375 1.696-2.64 2.563-3.796 2.563-1.422 0-2.602-.649-3.555-1.906-.922-1.204-1.383-2.61-1.383-4.243 0-4.484 1.531-8.882 4.594-13.18 3.219-4.523 6.734-6.796 10.523-6.796 2.828 0 4.758.945 5.797 2.804l-8.055 4.688c-.39-.492-1.039-.711-1.945-.711-1.57 0-2.937 1.008-4.14 3.055-1.063 1.867-1.618 3.742-1.618 5.633 0 1.078.297 2.007.89 2.757.595.766 1.337 1.125 2.267 1.125 1.695 0 3.117-1.101 4.273-3.312.992-1.93 1.492-3.899 1.492-5.93 0-.648-.148-1.281-.422-1.93l7.258-4.117c-.726 2.328-1.46 4.664-2.195 7.016-1.242 4.031-1.867 6.414-1.867 7.148 0 .681.296 1.04.873 1.112-.232.68-.35 1.447-.35 2.31 0 .792.111 1.48.334 2.064zm.955-6.056a4.03 4.03 0 0 1 1.612-1.165c-1.024 1.917-1.799 2.86-2.323 2.86-.08 0-.156-.004-.228-.013.215-.632.53-1.19.94-1.682zm2.356-1.382c-.26.052-.508.125-.744.217.106-.197.214-.406.326-.624l.539.117-.121.29zm-56.997-3.188c-.437-1.64-1.296-3-2.57-4.024-1.289-1.039-2.703-1.539-4.258-1.539-1.765 0-3.304.531-4.609 1.602-1.453 1.203-2.18 2.773-2.18 4.726 0 1.875.64 3.414 1.89 4.594 1.18 1.102 2.618 1.656 4.321 1.656 2.125 0 4.102-.593 5.922-1.797 1.93-1.28 3.266-3.015 4.024-5.18l2.195-6.327c.906-2.594 1.367-4.47 1.367-5.633 0-1.102-.406-1.758-1.219-1.93.39-1 1.125-1.93 2.196-2.82 1.14-.938 2.18-1.399 3.093-1.399.375 0 .774.079 1.203.18-.601.547-1.078 1.383-1.421 2.516-.25.968-.485 1.96-.727 2.945-.82 3.227-1.64 6.461-2.445 9.688-1.258 4.335-2.555 7.445-3.946 9.32-3.203 4.351-7.187 6.523-11.976 6.523-3.531 0-6.461-.93-8.774-2.765C1.336 39.523 0 36.523 0 32.625c0-3.25 1.11-5.937 3.328-8.125 2.11-2.102 4.625-3.133 7.492-3.133 2.696 0 5.094.89 7.235 2.664 2.297 1.914 3.586 4.336 3.843 7.274zm31.75-19.532c-1.89 1.446-3.062 3.094-3.5 4.891l-2.101 8.477c-.297 1.257-.453 2.375-.453 3.359 0 .719.336 1.398 1.015 1.992.625.555 1.274.813 1.922.813 1.242 0 2.407-.93 3.5-2.82.477-.829 1.164-2.399 2.04-4.712l.663.063-6 20.133h-.945l.664-2.813c-1.765 1.532-3.156 2.32-4.156 2.32-2.93 0-4.39-1.437-4.39-4.312 0-.89.202-2.172.6-3.82l4.579-18.5c.445-1.82 1.242-3.094 2.398-3.82.758-.454 2.141-.876 4.157-1.25zm-31.843 7.961l5.39-15.93c2.961-1.734 5.735-2.609 8.328-2.609 2.446 0 4.211.54 5.305 1.641 1.156 1.18 1.735 3.156 1.735 5.914 0 .977-.102 1.96-.305 2.906 1.672-3.812 2.976-6.304 3.922-7.523C47.945 1.875 50.195.75 52.93.75c.648 0 1.601.04 2.875.156 1.273.102 2.218.157 2.875.157.414 0 .96-.165 1.687-.516C61.078.195 61.61.016 61.97 0l.054.055v.117c-.164.32-.343.789-.562 1.36v.062c-2.211 5.875-3.969 8.789-5.273 8.789-.477 0-1.157-.008-2.094-.063-.899-.023-1.594-.054-2.055-.054-3.914 0-6.523.625-7.836 1.867-1.758 1.656-3.281 5.203-4.539 10.594L35.422 40.68c-.18.695.773 1.734 2.844 3.093l-11.328-.078c1.43-.375 2.46-.828 3.085-1.359.782-.688 1.383-1.734 1.758-3.172l4.633-17.078c.61-2.273.922-4.375.922-6.273 0-3.07-1.383-4.61-4.11-4.61-2.476 0-4.593.836-6.343 2.485-1.336 1.257-2.711 3.296-4.133 6.109z"/></g></g></svg>